<svg fill="none" height="27" viewBox="0 0 28 27" width="28" xmlns="http://www.w3.org/2000/svg">
  <path d="m13.5158 27 .1319-8.5959-3.5666-.0201.1002-4.1577h3.5065v-3.0055c0-.4213.0514-.8515.1233-1.26607.0644-.37078.1563-.73736.2845-1.09132.1155-.31899.2607-.62766.4397-.91599.1677-.2701.365-.52177.5895-.74689.2213-.22191.4684-.41747.7339-.58398.2749-.17252.5688-.31388.8728-.42739.5-.18674 1.0301-.30617 1.5608-.36127.549-.0571 1.1034-.02785 1.654-.01613.2275.00481.455.00972.6826.01263.4228.00541.8455.01042 1.2684.01502.0162.0002.0325.0004.0488.0006l-.1032 3.84793s-.4909-.02004-2.2141 0c-1.6931.02004-1.7132 1.28236-1.7132 1.34246l-.02 3.1959 3.9473.0702-.571 4.0875h-3.3563l-.0226 8.616h7.1058c1.3925 0 2.5246-1.1321 2.5246-2.5247v-21.95062c0-1.39258-1.1321-2.52468-2.5246-2.52468h-21.95069c-1.39258 0-2.524672 1.1321-2.524672 2.52468v21.95062c0 1.3926 1.132092 2.5247 2.524672 2.5247z" fill="#d7d7e4"/>
</svg>
