<svg fill="none" height="27" viewBox="0 0 28 27" width="28" xmlns="http://www.w3.org/2000/svg">
  <path clip-rule="evenodd" d="m3.04811 0h21.95069c1.3925 0 2.5246 1.1321 2.5246 2.52478v21.95052c0 1.3926-1.1321 2.5247-2.5246 2.5247h-21.95069c-1.39258 0-2.524672-1.1321-2.524672-2.5247v-21.95052c0-1.39268 1.132092-2.52478 2.524672-2.52478zm17.61159 13.0751c.235-.9966.2517-2.5845.2517-2.5845.9481-.66734 1.5773-1.63857 1.6529-1.75681-1.032.44765-1.871.45601-1.871.45601 1.1159-.74327 1.4598-1.85808 1.4598-1.85808-1.4514.79394-2.2485.81928-2.2485.81928-2.0639-2.82111-7.0559.11825-5.9484 3.218-4.58929-.1351-7.23212-3.66565-7.23212-3.66565-1.61086 2.62675 1.03196 4.66225 1.03196 4.66225-.67119.0422-1.58569-.4054-1.58569-.4054.03356 2.9983 2.80223 3.5051 2.80223 3.5051-.80543.2281-1.55213.093-1.55213.093 1.04035 2.5423 3.23015 2.4409 3.23015 2.4409-2.17302 1.8074-5.11789 1.4865-5.11789 1.4865 1.29205.8024 3.28046 1.4274 4.90809 1.5372 1.6277.1099 4.4886-.3124 6.8462-2.255 2.3492-1.9427 3.1378-4.7046 3.3727-5.6928z" fill="#d7d7e4" fill-rule="evenodd"/>
</svg>
